<svg viewBox="0 0 1132 804" xmlns:ev="http://www.w3.org/2001/xml-events" xmlns="http://www.w3.org/2000/svg" height="804" xmlns:xlink="http://www.w3.org/1999/xlink" width="1132"><style type="text/css"><![CDATA[
.st1 {fill:#303030;font-family:Arial;font-size:7.5pt}
]]></style><defs><linearGradient y1="0%" y2="100%" x1="0%" x2="0%" id="lg1"><stop stop-color="#fbfbfb" offset="0"/><stop stop-color="#efefef" offset="1"/></linearGradient></defs><g transform="translate(5,5)" id="page1"><rect stroke="#808080" height="794" x="0" y="0" fill="#ffffff" width="1123"/><g transform="translate(166,175)"><g id="shape1"><path fill-opacity="0.08" d="M96,58L96,2L2,2L2,58L96,58z" fill="#000000"/><path stroke="#6d6d6d" d="M94,56L94,0L0,0L0,56L94,56z" fill="#ffec00"/></g><text class="st1"><tspan x="35" y="31">Menu</tspan></text></g><g transform="translate(260,203)" id="shape2"><path stroke="#6d6d6d" d="M0,0L54,0" fill="none"/><path stroke-width="1" stroke="#6d6d6d" d="M-3,0C-3,-1.7,-1.7,-3,0,-3C1.7,-3,3,-1.7,3,0C3,1.7,1.7,3,0,3C-1.7,3,-3,1.7,-3,0" stroke-linecap="round" fill="#6d6d6d"/><path stroke-width="1" stroke="#6d6d6d" d="M54,-3L60,0L54,3L54,-3" stroke-linecap="round" fill="#6d6d6d"/></g><g transform="translate(320,175)"><g id="shape3"><path fill-opacity="0.08" d="M96,58L96,2L2,2L2,58L96,58z" fill="#000000"/><path stroke="#6d6d6d" d="M94,56L94,0L0,0L0,56L94,56z" fill="url(#lg1)"/></g><text class="st1"><tspan x="30" y="31">Options</tspan></text></g><g transform="translate(260,203)" id="shape4"><path stroke="#6d6d6d" d="M0,0L28,0L28,76L54,76" fill="none"/><path stroke-width="1" stroke="#6d6d6d" d="M-3,0C-3,-1.7,-1.7,-3,0,-3C1.7,-3,3,-1.7,3,0C3,1.7,1.7,3,0,3C-1.7,3,-3,1.7,-3,0" stroke-linecap="round" fill="#6d6d6d"/><path stroke-width="1" stroke="#6d6d6d" d="M54,73L60,76L54,79L54,73" stroke-linecap="round" fill="#6d6d6d"/></g><g transform="translate(320,251)"><g id="shape5"><path fill-opacity="0.08" d="M96,58L96,2L2,2L2,58L96,58z" fill="#000000"/><path stroke="#6d6d6d" d="M94,56L94,0L0,0L0,56L94,56z" fill="url(#lg1)"/></g><text class="st1"><tspan x="16" y="31">Achievements</tspan></text></g><g transform="translate(260,203)" id="shape6"><path stroke="#6d6d6d" d="M0,0L28,0L28,152L54,152" fill="none"/><path stroke-width="1" stroke="#6d6d6d" d="M-3,0C-3,-1.7,-1.7,-3,0,-3C1.7,-3,3,-1.7,3,0C3,1.7,1.7,3,0,3C-1.7,3,-3,1.7,-3,0" stroke-linecap="round" fill="#6d6d6d"/><path stroke-width="1" stroke="#6d6d6d" d="M54,149L60,152L54,155L54,149" stroke-linecap="round" fill="#6d6d6d"/></g><g transform="translate(320,327)"><g id="shape7"><path fill-opacity="0.08" d="M96,58L96,2L2,2L2,58L96,58z" fill="#000000"/><path stroke="#6d6d6d" d="M94,56L94,0L0,0L0,56L94,56z" fill="url(#lg1)"/></g><text class="st1"><tspan x="21" y="31">Start Game</tspan></text></g><g transform="translate(414,355)" id="shape8"><path stroke="#6d6d6d" d="M0,0L54,0" fill="none"/><path stroke-width="1" stroke="#6d6d6d" d="M-3,0C-3,-1.7,-1.7,-3,0,-3C1.7,-3,3,-1.7,3,0C3,1.7,1.7,3,0,3C-1.7,3,-3,1.7,-3,0" stroke-linecap="round" fill="#6d6d6d"/><path stroke-width="1" stroke="#6d6d6d" d="M54,-3L60,0L54,3L54,-3" stroke-linecap="round" fill="#6d6d6d"/></g><g transform="translate(474,327)"><g id="shape9"><path fill-opacity="0.08" d="M96,58L96,2L2,2L2,58L96,58z" fill="#000000"/><path stroke="#6d6d6d" d="M94,56L94,0L0,0L0,56L94,56z" fill="url(#lg1)"/></g><text class="st1"><tspan x="17" y="31">Select Tracks</tspan></text></g><g transform="translate(568,355)" id="shape10"><path stroke="#6d6d6d" d="M0,0L54,0" fill="none"/><path stroke-width="1" stroke="#6d6d6d" d="M-3,0C-3,-1.7,-1.7,-3,0,-3C1.7,-3,3,-1.7,3,0C3,1.7,1.7,3,0,3C-1.7,3,-3,1.7,-3,0" stroke-linecap="round" fill="#6d6d6d"/><path stroke-width="1" stroke="#6d6d6d" d="M54,-3L60,0L54,3L54,-3" stroke-linecap="round" fill="#6d6d6d"/></g><g transform="translate(628,327)"><g id="shape11"><path fill-opacity="0.08" d="M96,58L96,2L2,2L2,58L96,58z" fill="#000000"/><path stroke="#6d6d6d" d="M94,56L94,0L0,0L0,56L94,56z" fill="url(#lg1)"/></g><text class="st1"><tspan x="12" y="31">PlayGameState</tspan></text></g><g transform="translate(722,355)" id="shape12"><path stroke="#6d6d6d" d="M0,0L54,0" fill="none"/><path stroke-width="1" stroke="#6d6d6d" d="M-3,0C-3,-1.7,-1.7,-3,0,-3C1.7,-3,3,-1.7,3,0C3,1.7,1.7,3,0,3C-1.7,3,-3,1.7,-3,0" stroke-linecap="round" fill="#6d6d6d"/><path stroke-width="1" stroke="#6d6d6d" d="M54,-3L60,0L54,3L54,-3" stroke-linecap="round" fill="#6d6d6d"/></g><g transform="translate(782,327)"><g id="shape13"><path fill-opacity="0.08" d="M96,58L96,2L2,2L2,58L96,58z" fill="#000000"/><path stroke="#6d6d6d" d="M94,56L94,0L0,0L0,56L94,56z" fill="url(#lg1)"/></g><text class="st1"><tspan x="33" y="31">Pause</tspan></text></g><g transform="translate(628,355)" id="shape14"><path stroke="#6d6d6d" d="M0,0L-28,0L-28,60L-107,60L-107,34" fill="none"/><path stroke-width="1" stroke="#6d6d6d" d="M3,0C3,1.7,1.7,3,0,3C-1.7,3,-3,1.7,-3,0C-3,-1.7,-1.7,-3,0,-3C1.7,-3,3,-1.7,3,0" stroke-linecap="round" fill="#6d6d6d"/><path stroke-width="1" stroke="#6d6d6d" d="M-110,34L-107,28L-104,34L-110,34" stroke-linecap="round" fill="#6d6d6d"/></g><g transform="translate(722,355)" id="shape15"><path stroke="#6d6d6d" d="M0,0L28,0L28,76L54,76" fill="none"/><path stroke-width="1" stroke="#6d6d6d" d="M-3,0C-3,-1.7,-1.7,-3,0,-3C1.7,-3,3,-1.7,3,0C3,1.7,1.7,3,0,3C-1.7,3,-3,1.7,-3,0" stroke-linecap="round" fill="#6d6d6d"/><path stroke-width="1" stroke="#6d6d6d" d="M54,73L60,76L54,79L54,73" stroke-linecap="round" fill="#6d6d6d"/></g><g transform="translate(782,403)"><g id="shape16"><path fill-opacity="0.08" d="M96,58L96,2L2,2L2,58L96,58z" fill="#000000"/><path stroke="#6d6d6d" d="M94,56L94,0L0,0L0,56L94,56z" fill="url(#lg1)"/></g><text class="st1"><tspan x="21" y="31">Game Over</tspan></text></g><g transform="translate(829,459)" id="shape17"><path stroke="#6d6d6d" d="M0,0L0,32L-462,32L-462,-70" fill="none"/><path stroke-width="1" stroke="#6d6d6d" d="M0,-3C1.7,-3,3,-1.7,3,0C3,1.7,1.7,3,0,3C-1.7,3,-3,1.7,-3,0C-3,-1.7,-1.7,-3,0,-3" stroke-linecap="round" fill="#6d6d6d"/><path stroke-width="1" stroke="#6d6d6d" d="M-465,-70L-462,-76L-459,-70L-465,-70" stroke-linecap="round" fill="#6d6d6d"/></g><g transform="translate(829,459)" id="shape18"><path stroke="#6d6d6d" d="M0,0L0,32L-308,32L-308,-70" fill="none"/><path stroke-width="1" stroke="#6d6d6d" d="M0,-3C1.7,-3,3,-1.7,3,0C3,1.7,1.7,3,0,3C-1.7,3,-3,1.7,-3,0C-3,-1.7,-1.7,-3,0,-3" stroke-linecap="round" fill="#6d6d6d"/><path stroke-width="1" stroke="#6d6d6d" d="M-311,-70L-308,-76L-305,-70L-311,-70" stroke-linecap="round" fill="#6d6d6d"/></g><g transform="translate(829,459)" id="shape19"><path stroke="#6d6d6d" d="M0,0L0,32L-154,32L-154,-70" fill="none"/><path stroke-width="1" stroke="#6d6d6d" d="M0,-3C1.7,-3,3,-1.7,3,0C3,1.7,1.7,3,0,3C-1.7,3,-3,1.7,-3,0C-3,-1.7,-1.7,-3,0,-3" stroke-linecap="round" fill="#6d6d6d"/><path stroke-width="1" stroke="#6d6d6d" d="M-157,-70L-154,-76L-151,-70L-157,-70" stroke-linecap="round" fill="#6d6d6d"/><rect height="12" x="-165.8" y="-62" fill="#ffffff" width="23.5"/><text class="st1"><tspan x="-165.9" y="-53">Retry</tspan></text></g><g transform="translate(166,520)"><g id="shape20"><path fill-opacity="0.08" d="M-12,58L82,58L110,2L16,2L-12,58z" fill="#000000"/><path stroke="#6d6d6d" d="M-14,56L80,56L108,0L14,0L-14,56z" fill="#cfebf6"/></g><text class="st1"><tspan x="14" y="31">gamedata.json</tspan></text></g><g transform="translate(213,520)" id="shape21"><path stroke="#6d6d6d" d="M0,0L0,-281L154,-281L154,-283" fill="none"/><path stroke-width="1" stroke="#6d6d6d" d="M0,3C-1.7,3,-3,1.7,-3,0C-3,-1.7,-1.7,-3,0,-3C1.7,-3,3,-1.7,3,0C3,1.7,1.7,3,0,3" stroke-linecap="round" fill="#6d6d6d"/><path stroke-width="1" stroke="#6d6d6d" d="M151,-283L154,-289L157,-283L151,-283" stroke-linecap="round" fill="#6d6d6d"/></g><g transform="translate(213,520)" id="shape22"><path stroke="#6d6d6d" d="M0,0L0,-205L154,-205L154,-207" fill="none"/><path stroke-width="1" stroke="#6d6d6d" d="M0,3C-1.7,3,-3,1.7,-3,0C-3,-1.7,-1.7,-3,0,-3C1.7,-3,3,-1.7,3,0C3,1.7,1.7,3,0,3" stroke-linecap="round" fill="#6d6d6d"/><path stroke-width="1" stroke="#6d6d6d" d="M151,-207L154,-213L157,-207L151,-207" stroke-linecap="round" fill="#6d6d6d"/></g><g transform="translate(829,459)" id="shape23"><path stroke="#6d6d6d" d="M0,0L0,89L-563,89" fill="none"/><path stroke-width="1" stroke="#6d6d6d" d="M0,-3C1.7,-3,3,-1.7,3,0C3,1.7,1.7,3,0,3C-1.7,3,-3,1.7,-3,0C-3,-1.7,-1.7,-3,0,-3" stroke-linecap="round" fill="#6d6d6d"/><path stroke-width="1" stroke="#6d6d6d" d="M-563,92L-569,89L-563,86L-563,92" stroke-linecap="round" fill="#6d6d6d"/></g><g transform="translate(414,203)" id="shape24"><path stroke="#6d6d6d" d="M0,0L32,0L32,345L-148,345" fill="none"/><path stroke-width="1" stroke="#6d6d6d" d="M-3,0C-3,-1.7,-1.7,-3,0,-3C1.7,-3,3,-1.7,3,0C3,1.7,1.7,3,0,3C-1.7,3,-3,1.7,-3,0" stroke-linecap="round" fill="#6d6d6d"/><path stroke-width="1" stroke="#6d6d6d" d="M-148,348L-154,345L-148,342L-148,348" stroke-linecap="round" fill="#6d6d6d"/></g><g transform="translate(563,175)"><g id="shape25"><path fill-opacity="0.08" d="M-12,58L82,58L110,2L16,2L-12,58z" fill="#000000"/><path stroke="#6d6d6d" d="M-14,56L80,56L108,0L14,0L-14,56z" fill="url(#lg1)"/></g><text class="st1"><tspan x="19" y="31">Audio (.wav)</tspan></text></g><g transform="translate(680,175)"><g id="shape26"><path fill-opacity="0.08" d="M-12,58L82,58L110,2L16,2L-12,58z" fill="#000000"/><path stroke="#6d6d6d" d="M-14,56L80,56L108,0L14,0L-14,56z" fill="url(#lg1)"/></g><text class="st1"><tspan x="13" y="31">Beatmap (.csv)</tspan></text></g><g transform="translate(610,231)" id="shape27"><path stroke="#6d6d6d" d="M0,0L0,64L65,64L65,90" fill="none"/><path stroke-width="1" stroke="#6d6d6d" d="M0,-3C1.7,-3,3,-1.7,3,0C3,1.7,1.7,3,0,3C-1.7,3,-3,1.7,-3,0C-3,-1.7,-1.7,-3,0,-3" stroke-linecap="round" fill="#6d6d6d"/><path stroke-width="1" stroke="#6d6d6d" d="M68,90L65,96L62,90L68,90" stroke-linecap="round" fill="#6d6d6d"/><rect height="12" x="-23.2" y="14" fill="#ffffff" width="47"/><text class="st1"><tspan x="-23.3" y="23">Python-vlc</tspan></text></g><g transform="translate(727,231)" id="shape28"><path stroke="#6d6d6d" d="M0,0L0,64L-52,64L-52,90" fill="none"/><path stroke-width="1" stroke="#6d6d6d" d="M0,-3C1.7,-3,3,-1.7,3,0C3,1.7,1.7,3,0,3C-1.7,3,-3,1.7,-3,0C-3,-1.7,-1.7,-3,0,-3" stroke-linecap="round" fill="#6d6d6d"/><path stroke-width="1" stroke="#6d6d6d" d="M-49,90L-52,96L-55,90L-49,90" stroke-linecap="round" fill="#6d6d6d"/></g><g transform="translate(628,53)"><g id="shape29"><path fill-opacity="0.08" d="M-12,58L82,58L110,2L16,2L-12,58z" fill="#000000"/><path stroke="#6d6d6d" d="M-14,56L80,56L108,0L14,0L-14,56z" fill="#fed6e5"/></g><text class="st1"><tspan x="25" y="31">MIDI Files</tspan></text></g><g transform="translate(675,109)" id="shape30"><path stroke="#6d6d6d" d="M0,0L0,34L52,34L52,60" fill="none"/><path stroke-width="1" stroke="#6d6d6d" d="M0,-3C1.7,-3,3,-1.7,3,0C3,1.7,1.7,3,0,3C-1.7,3,-3,1.7,-3,0C-3,-1.7,-1.7,-3,0,-3" stroke-linecap="round" fill="#6d6d6d"/><path stroke-width="1" stroke="#6d6d6d" d="M55,60L52,66L49,60L55,60" stroke-linecap="round" fill="#6d6d6d"/><rect height="12" x="3.3" y="40" fill="#ffffff" width="99.1"/><text class="st1"><tspan x="3.2" y="49">BeatmapGenerator.py</tspan></text></g><g transform="translate(675,109)" id="shape31"><path stroke="#6d6d6d" d="M0,0L0,34L-65,34L-65,60" fill="none"/><path stroke-width="1" stroke="#6d6d6d" d="M0,-3C1.7,-3,3,-1.7,3,0C3,1.7,1.7,3,0,3C-1.7,3,-3,1.7,-3,0C-3,-1.7,-1.7,-3,0,-3" stroke-linecap="round" fill="#6d6d6d"/><path stroke-width="1" stroke="#6d6d6d" d="M-62,60L-65,66L-68,60L-62,60" stroke-linecap="round" fill="#6d6d6d"/><rect height="12" x="-104.3" y="40" fill="#ffffff" width="79.7"/><text class="st1"><tspan x="-104.4" y="49">Audio Conversion</tspan></text></g><g transform="translate(85,251)"><g id="shape32"><path fill-opacity="0.08" d="M-12,58L97,58L125,2L16,2L-12,58z" fill="#000000"/><path stroke="#6d6d6d" d="M-14,56L95,56L123,0L14,0L-14,56z" fill="#cde6c7"/></g><text class="st1"><tspan x="15" y="31">Achievement.json</tspan></text></g><g transform="translate(194,279)" id="shape33"><path stroke="#6d6d6d" d="M0,0L120,0" fill="none"/><path stroke-width="1" stroke="#6d6d6d" d="M-3,0C-3,-1.7,-1.7,-3,0,-3C1.7,-3,3,-1.7,3,0C3,1.7,1.7,3,0,3C-1.7,3,-3,1.7,-3,0" stroke-linecap="round" fill="#6d6d6d"/><path stroke-width="1" stroke="#6d6d6d" d="M120,-3L126,0L120,3L120,-3" stroke-linecap="round" fill="#6d6d6d"/></g></g></svg>