<svg id="Capa_1" enable-background="new 0 0 512 512" height="512" viewBox="0 0 512 512" width="512" xmlns="http://www.w3.org/2000/svg"><g><path d="m383.239 129.208-128.5 25.474v77.204 43.938 176.176l30-7.5c0-64.691 0-115.389 0-174.686l98.5-19.737 128.5-35.748c0-8.377 0-85.324 0-100.594z" fill="#4e6ba6"/><path d="m383.239 129.208v120.868l98.5-19.736v146.66l30 7.5c0-15.79 0-104.029 0-160.172 0-21.682 0-38.581 0-44.664 0-30.623 0-67.059 0-75.93z" fill="#28487a"/><path d="m444.239 452c-37.22 0-67.5-30.28-67.5-67.5s30.28-67.5 67.5-67.5c0 0 57.5 30.28 57.5 67.5s-33.739 44-57.5 67.5z" fill="#ade993"/><path d="m511.739 384.5c0-37.22-30.28-67.5-67.5-67.5v135c37.22 0 67.5-30.28 67.5-67.5z" fill="#76d081"/><path d="m135.261 277.5-30 7.5v-285h30c0 18.046 8.034 25.489 27.833 42.058 7.487 6.266 15.974 13.368 24.941 22.336 28.522 28.522 24.144 64.324 24.144 95.356h-30c0-30.872 3.511-55.275-15.357-74.144-11.479-11.479-22.178-19.627-31.562-27.825v219.719z" fill="#4e6ba6"/><path d="m67.761 343.324c-37.22 0-67.5-30.28-67.5-67.5s30.28-67.5 67.5-67.5c0 0 57.5 30.28 57.5 67.5s-33.74 44-57.5 67.5z" fill="#f6e486"/><path d="m135.261 275.824c0-37.22-30.28-67.5-67.5-67.5v135c37.219 0 67.5-30.28 67.5-67.5z" fill="#f0ce46"/><path d="m217.239 512c-37.22 0-67.5-30.28-67.5-67.5s30.28-67.5 67.5-67.5c0 0 57.5 30.28 57.5 67.5s-33.739 44-57.5 67.5z" fill="#8dc5e8"/><path d="m284.739 444.5c0-37.22-30.28-67.5-67.5-67.5v135c37.22 0 67.5-30.28 67.5-67.5z" fill="#5e9ff6"/></g></svg>