<svg width="815" height="487" xmlns="http://www.w3.org/2000/svg" xmlns:xlink="http://www.w3.org/1999/xlink" overflow="hidden"><defs><clipPath id="clip0"><path d="M45 147 860 147 860 634 45 634Z" fill-rule="evenodd" clip-rule="evenodd"/></clipPath></defs><g clip-path="url(#clip0)" transform="translate(-45 -147)"><path d="M462.5 283.167C462.5 280.589 464.589 278.5 467.167 278.5L613.833 278.5C616.411 278.5 618.5 280.589 618.5 283.167L618.5 301.833C618.5 304.411 616.411 306.5 613.833 306.5L467.167 306.5C464.589 306.5 462.5 304.411 462.5 301.833Z" stroke="#2F528F" stroke-width="1.33333" stroke-miterlimit="8" fill="#4472C4" fill-rule="evenodd"/><text fill="#FFFFFF" font-family="Calibri,Calibri_MSFontService,sans-serif" font-weight="400" font-size="18" transform="translate(522.969 298)">Back</text><path d="M157.5 283.167C157.5 280.589 159.589 278.5 162.167 278.5L308.833 278.5C311.411 278.5 313.5 280.589 313.5 283.167L313.5 301.833C313.5 304.411 311.411 306.5 308.833 306.5L162.167 306.5C159.589 306.5 157.5 304.411 157.5 301.833Z" stroke="#2F528F" stroke-width="1.33333" stroke-miterlimit="8" fill="#4472C4" fill-rule="evenodd"/><text fill="#FFFFFF" font-family="Calibri,Calibri_MSFontService,sans-serif" font-weight="400" font-size="18" transform="translate(220.01 298)">Play</text><path d="M197 365 197 510.365 193 510.365 193 365ZM201 508.365 195 520.365 189 508.365Z" fill="#FF0000"/><path d="M277 365 277 510.365 273 510.365 273 365ZM281 508.365 275 520.365 269 508.365Z" fill="#92D050"/><path d="M157.5 525.167C157.5 522.589 159.589 520.5 162.167 520.5L308.833 520.5C311.411 520.5 313.5 522.589 313.5 525.167L313.5 543.833C313.5 546.411 311.411 548.5 308.833 548.5L162.167 548.5C159.589 548.5 157.5 546.411 157.5 543.833Z" stroke="#2F528F" stroke-width="1.33333" stroke-miterlimit="8" fill="#4472C4" fill-rule="evenodd"/><text fill="#FFFFFF" font-family="Calibri,Calibri_MSFontService,sans-serif" font-weight="400" font-size="18" transform="translate(180.082 540)">Scoring System</text><path d="M157.5 342.167C157.5 339.589 159.589 337.5 162.167 337.5L308.833 337.5C311.411 337.5 313.5 339.589 313.5 342.167L313.5 360.833C313.5 363.411 311.411 365.5 308.833 365.5L162.167 365.5C159.589 365.5 157.5 363.411 157.5 360.833Z" stroke="#2F528F" stroke-width="1.33333" stroke-miterlimit="8" fill="#4472C4" fill-rule="evenodd"/><text fill="#FFFFFF" font-family="Calibri,Calibri_MSFontService,sans-serif" font-weight="400" font-size="18" transform="translate(192.535 357)">Main Game</text><path d="M361.5 524.333C361.5 521.664 363.664 519.5 366.333 519.5L512.667 519.5C515.336 519.5 517.5 521.664 517.5 524.333L517.5 543.667C517.5 546.336 515.336 548.5 512.667 548.5L366.333 548.5C363.664 548.5 361.5 546.336 361.5 543.667Z" stroke="#2F528F" stroke-width="1.33333" stroke-miterlimit="8" fill="#4472C4" fill-rule="evenodd"/><text fill="#FFFFFF" font-family="Calibri,Calibri_MSFontService,sans-serif" font-weight="400" font-size="18" transform="translate(417.336 540)">Pause</text><path d="M583.5 524.333C583.5 521.664 585.664 519.5 588.333 519.5L734.667 519.5C737.336 519.5 739.5 521.664 739.5 524.333L739.5 543.667C739.5 546.336 737.336 548.5 734.667 548.5L588.333 548.5C585.664 548.5 583.5 546.336 583.5 543.667Z" stroke="#2F528F" stroke-width="1.33333" stroke-miterlimit="8" fill="#4472C4" fill-rule="evenodd"/><text fill="#FFFFFF" font-family="Calibri,Calibri_MSFontService,sans-serif" font-weight="400" font-size="18" transform="translate(646.184 540)">Play</text><path d="M583.5 564.167C583.5 561.589 585.589 559.5 588.167 559.5L734.833 559.5C737.411 559.5 739.5 561.589 739.5 564.167L739.5 582.833C739.5 585.411 737.411 587.5 734.833 587.5L588.167 587.5C585.589 587.5 583.5 585.411 583.5 582.833Z" stroke="#2F528F" stroke-width="1.33333" stroke-miterlimit="8" fill="#4472C4" fill-rule="evenodd"/><text fill="#FFFFFF" font-family="Calibri,Calibri_MSFontService,sans-serif" font-weight="400" font-size="18" transform="translate(610.703 579)">Save and Quit</text><path d="M157.5 591.333C157.5 588.664 159.664 586.5 162.333 586.5L308.667 586.5C311.336 586.5 313.5 588.664 313.5 591.333L313.5 610.667C313.5 613.336 311.336 615.5 308.667 615.5L162.333 615.5C159.664 615.5 157.5 613.336 157.5 610.667Z" stroke="#2F528F" stroke-width="1.33333" stroke-miterlimit="8" fill="#4472C4" fill-rule="evenodd"/><text fill="#FFFFFF" font-family="Calibri,Calibri_MSFontService,sans-serif" font-weight="400" font-size="18" transform="translate(197.342 607)">Song Over</text><path d="M377.5 586.833C377.5 582.783 380.783 579.5 384.833 579.5L526.167 579.5C530.217 579.5 533.5 582.783 533.5 586.833L533.5 616.167C533.5 620.217 530.217 623.5 526.167 623.5L384.833 623.5C380.783 623.5 377.5 620.217 377.5 616.167Z" stroke="#2F528F" stroke-width="1.33333" stroke-miterlimit="8" fill="#4472C4" fill-rule="evenodd"/><text fill="#FFFFFF" font-family="Calibri,Calibri_MSFontService,sans-serif" font-weight="400" font-size="18" transform="translate(391.404 596)">Show and Record <tspan x="43.22" y="21">Score</tspan></text><path d="M0-2 17.3688-2 17.3688 0.0259318 15.3688-1.97407 20.7375-1.97407 20.7375 2.02593 13.3688 2.02593 13.3688 0 15.3688 2 0 2ZM18.7375-5.97407 30.7375 0.0259318 18.7375 6.02593Z" fill="#4472C4" transform="matrix(-4.37114e-08 1 1 4.37114e-08 235 306)"/><path d="M696.5 385.167C696.5 382.589 698.589 380.5 701.167 380.5L847.833 380.5C850.411 380.5 852.5 382.589 852.5 385.167L852.5 403.833C852.5 406.411 850.411 408.5 847.833 408.5L701.167 408.5C698.589 408.5 696.5 406.411 696.5 403.833Z" stroke="#2F528F" stroke-width="1.33333" stroke-miterlimit="8" fill="#4472C4" fill-rule="evenodd"/><text fill="#FFFFFF" font-family="Calibri,Calibri_MSFontService,sans-serif" font-weight="400" font-size="18" transform="translate(718.416 400)">MIDI <tspan x="39.3333" y="0">Songtrack</tspan></text><path d="M509.5 342.167C509.5 339.589 511.589 337.5 514.167 337.5L660.833 337.5C663.411 337.5 665.5 339.589 665.5 342.167L665.5 360.833C665.5 363.411 663.411 365.5 660.833 365.5L514.167 365.5C511.589 365.5 509.5 363.411 509.5 360.833Z" stroke="#2F528F" stroke-width="1.33333" stroke-miterlimit="8" fill="#4472C4" fill-rule="evenodd"/><text fill="#FFFFFF" font-family="Calibri,Calibri_MSFontService,sans-serif" font-weight="400" font-size="18" transform="translate(565.672 357)">Audio</text><path d="M509.5 385.167C509.5 382.589 511.589 380.5 514.167 380.5L660.833 380.5C663.411 380.5 665.5 382.589 665.5 385.167L665.5 403.833C665.5 406.411 663.411 408.5 660.833 408.5L514.167 408.5C511.589 408.5 509.5 406.411 509.5 403.833Z" stroke="#2F528F" stroke-width="1.33333" stroke-miterlimit="8" fill="#4472C4" fill-rule="evenodd"/><text fill="#FFFFFF" font-family="Calibri,Calibri_MSFontService,sans-serif" font-weight="400" font-size="18" transform="translate(541.852 400)">Visual Notes</text><path d="M509.5 434.834C509.5 429.679 513.679 425.5 518.834 425.5L656.167 425.5C661.321 425.5 665.5 429.679 665.5 434.834L665.5 472.167C665.5 477.321 661.321 481.5 656.167 481.5L518.834 481.5C513.679 481.5 509.5 477.321 509.5 472.167Z" stroke="#2F528F" stroke-width="1.33333" stroke-miterlimit="8" fill="#4472C4" fill-rule="evenodd"/><text fill="#FFFFFF" font-family="Calibri,Calibri_MSFontService,sans-serif" font-weight="400" font-size="18" transform="translate(528.802 448)">Keystroke Script <tspan x="8.60663" y="21">(aka solution)</tspan></text><path d="M696.018 395.52 678.509 395.52 678.509 351 680.509 353 675 353 675 349 682.509 349 682.509 393.52 680.509 391.52 696.018 391.52ZM677 357 665 351 677 345Z" fill="#4472C4"/><path d="M696.018 397.333 678.509 397.333 678.509 394 680.509 396 675 396 675 392 682.509 392 682.509 395.333 680.509 393.333 696.018 393.333ZM677 400 665 394 677 388Z" fill="#4472C4"/><path d="M0-2 17.5091-2 17.5091 59.3816 15.5091 57.3816 21.0182 57.3816 21.0182 61.3816 13.5091 61.3816 13.5091 0 15.5091 2 0 2ZM19.0182 53.3816 31.0182 59.3816 19.0182 65.3816Z" fill="#4472C4" transform="matrix(-1 -8.74228e-08 -8.74228e-08 1 696.018 394)"/><path d="M0-2 100.116-2 100.116 0.000209974 98.1158-1.99979 186.232-1.99979 186.232 2.00021 96.1158 2.00021 96.1158 0 98.1158 2 0 2ZM184.232-5.99979 196.232 0.000209974 184.232 6.00021Z" fill="#4472C4" transform="matrix(-1 -8.74228e-08 -8.74228e-08 1 509.232 351)"/><path d="M509.232 454.901 409.116 454.901 409.116 351 411.116 353 323 353 323 349 413.116 349 413.116 452.901 411.116 450.901 509.232 450.901ZM325 357 313 351 325 345Z" fill="#4472C4"/><path d="M509.232 395.519 409.116 395.519 409.116 351 411.116 353 323 353 323 349 413.116 349 413.116 393.519 411.116 391.519 509.232 391.519ZM325 357 313 351 325 345Z" fill="#4472C4"/><path d="M480.5 155.167C480.5 152.589 482.589 150.5 485.167 150.5L631.833 150.5C634.411 150.5 636.5 152.589 636.5 155.167L636.5 173.833C636.5 176.411 634.411 178.5 631.833 178.5L485.167 178.5C482.589 178.5 480.5 176.411 480.5 173.833Z" stroke="#2F528F" stroke-width="1.33333" stroke-miterlimit="8" fill="#4472C4" fill-rule="evenodd"/><text fill="#FFFFFF" font-family="Calibri,Calibri_MSFontService,sans-serif" font-weight="400" font-size="18" transform="translate(509.47 170)">Home screen</text><path d="M310.5 221.167C310.5 218.589 312.589 216.5 315.167 216.5L461.833 216.5C464.411 216.5 466.5 218.589 466.5 221.167L466.5 239.833C466.5 242.411 464.411 244.5 461.833 244.5L315.167 244.5C312.589 244.5 310.5 242.411 310.5 239.833Z" stroke="#2F528F" stroke-width="1.33333" stroke-miterlimit="8" fill="#4472C4" fill-rule="evenodd"/><text fill="#FFFFFF" font-family="Calibri,Calibri_MSFontService,sans-serif" font-weight="400" font-size="18" transform="translate(365.449 236)">Levels</text><path d="M650.5 221.167C650.5 218.589 652.589 216.5 655.167 216.5L800.833 216.5C803.411 216.5 805.5 218.589 805.5 221.167L805.5 239.833C805.5 242.411 803.411 244.5 800.833 244.5L655.167 244.5C652.589 244.5 650.5 242.411 650.5 239.833Z" stroke="#2F528F" stroke-width="1.33333" stroke-miterlimit="8" fill="#4472C4" fill-rule="evenodd"/><text fill="#FFFFFF" font-family="Calibri,Calibri_MSFontService,sans-serif" font-weight="400" font-size="18" transform="translate(698.671 236)">Options</text><path d="M559.864 178 559.864 198.943 388 198.943 390 196.943 390 205.886 386 205.886 386 194.943 557.864 194.943 555.864 196.943 555.864 178ZM394 203.886 388 215.886 382 203.886Z" fill="#4472C4"/><path d="M0-2 20.9433-2 20.9433 169.864 18.9433 167.864 27.8864 167.864 27.8864 171.864 16.9433 171.864 16.9433 0 18.9433 2 0 2ZM25.8864 163.864 37.8864 169.864 25.8864 175.864Z" fill="#4472C4" transform="matrix(-4.37114e-08 1 1 4.37114e-08 558 178)"/><path d="M0-2 18.8805-2 18.8805 152.4 16.8805 150.4 23.7608 150.4 23.7608 154.4 14.8805 154.4 14.8805 0 16.8805 2 0 2ZM21.7608 146.4 33.7608 152.4 21.7608 158.4Z" fill="#4472C4" transform="matrix(-4.37114e-08 1 1 4.37114e-08 388 244)"/><path d="M389.726 244 389.726 262.88 235 262.88 237 260.88 237 267.761 233 267.761 233 258.88 387.726 258.88 385.726 260.88 385.726 244ZM241 265.761 235 277.761 229 265.761Z" fill="#4472C4"/><path d="M0 2-26.0002 2-26.0002-103.953 78.2805-103.953 78.2805 64.447 74.2805 64.447 74.2805-101.953 76.2805-99.953-24.0002-99.953-22.0002-101.953-22.0002 0-24.0002-2 0-2ZM82.2805 62.447 76.2805 74.447 70.2805 62.447Z" fill="#4472C4" transform="matrix(-4.37114e-08 -1 -1 4.37114e-08 540.447 306.281)"/><path d="M237.113 548 237.113 568.964 235 568.964 237 566.964 237 575.929 233 575.929 233 564.964 235.113 564.964 233.113 566.964 233.113 548ZM241 573.929 235 585.929 229 573.929Z" fill="#4472C4"/><path d="M313 598 347.01 598 347.01 600.531 345.01 598.531 367.02 598.531 367.02 602.531 343.01 602.531 343.01 600 345.01 602 313 602ZM365.02 594.531 377.02 600.531 365.02 606.531Z" fill="#4472C4"/><path d="M0-2 25.9757-2 25.9757 0.727244 23.9757-1.27276 37.9514-1.27276 37.9514 2.72724 21.9757 2.72724 21.9757 0 23.9757 2 0 2ZM35.9514-5.27276 47.9514 0.727244 35.9514 6.72724Z" fill="#4472C4" transform="matrix(1 0 0 -1 313 533.727)"/><path d="M517 531 552.193 531 552.193 534.333 550.193 532.333 573.386 532.333 573.386 536.333 548.193 536.333 548.193 533 550.193 535 517 535ZM571.386 528.333 583.386 534.333 571.386 540.333Z" fill="#4472C4"/><path d="M517 531 552.251 531 552.251 572.381 550.251 570.381 573.502 570.381 573.502 574.381 548.251 574.381 548.251 533 550.251 535 517 535ZM571.502 566.381 583.502 572.381 571.502 578.381Z" fill="#4472C4"/><path d="M739.101 531.446 763.102 531.446 761.102 533.446 761.102 495.273 763.102 497.273 235 497.273 237 495.273 237 510 233 510 233 493.273 765.102 493.273 765.102 535.446 739.101 535.446ZM241 508 235 520 229 508Z" fill="#4472C4"/><text font-family="Calibri,Calibri_MSFontService,sans-serif" font-weight="400" font-size="18" transform="translate(58.5615 416)">Missing<tspan x="59.6667" y="0">keystroke</tspan><tspan x="9.15334" y="21">Extra</tspan><tspan x="50.5067" y="21">keystroke</tspan><tspan x="220.781" y="11">Correct </tspan>keystroke</text><path d="M533 604 857 604 857 295.2 469 232" stroke="#0070C0" stroke-width="4" stroke-miterlimit="8" fill="none" fill-rule="evenodd"/><path d="M739 573 856.547 573" stroke="#4472C4" stroke-width="4" stroke-miterlimit="8" fill="none" fill-rule="evenodd"/></g></svg>